<svg width="2971" height="648" viewBox="0 0 2971 648" fill="none" xmlns="http://www.w3.org/2000/svg">
<path d="M2672.05 525.405V116.757H2840.18C2865.87 116.757 2888.44 122.011 2907.9 132.519C2927.75 142.638 2943.12 157.038 2954.02 175.719C2965.31 194.4 2970.95 216.584 2970.95 242.27V250.443C2970.95 275.741 2965.11 297.924 2953.44 316.995C2942.15 335.676 2926.58 350.27 2906.73 360.778C2887.27 370.897 2865.09 375.957 2840.18 375.957H2749.11V525.405H2672.05ZM2749.11 305.903H2832.59C2850.89 305.903 2865.67 300.843 2876.96 290.724C2888.25 280.605 2893.89 266.789 2893.89 249.276V243.438C2893.89 225.924 2888.25 212.108 2876.96 201.989C2865.67 191.87 2850.89 186.811 2832.59 186.811H2749.11V305.903Z" fill="white"/>
<path d="M2437.45 533.579C2403.98 533.579 2375.18 527.546 2351.05 515.481C2327.31 503.027 2309.02 485.514 2296.17 462.941C2283.72 439.978 2277.49 412.93 2277.49 381.795V116.757H2354.55V384.13C2354.55 409.038 2361.56 428.692 2375.57 443.092C2389.97 457.492 2410.59 464.692 2437.45 464.692C2464.3 464.692 2484.74 457.492 2498.75 443.092C2513.15 428.692 2520.35 409.038 2520.35 384.13V116.757H2597.41V381.795C2597.41 412.93 2590.98 439.978 2578.14 462.941C2565.69 485.514 2547.39 503.027 2523.27 515.481C2499.52 527.546 2470.92 533.579 2437.45 533.579Z" fill="white"/>
<path d="M2031.2 525.405V186.811H1912.11V116.757H2227.35V186.811H2108.26V525.405H2031.2Z" fill="white"/>
<path d="M1576.23 525.405L1683.65 116.757H1817.92L1925.34 525.405H1845.94L1823.76 435.503H1677.81L1655.63 525.405H1576.23ZM1695.91 364.281H1805.66L1756.04 165.211H1745.53L1695.91 364.281Z" fill="white"/>
<path d="M1371.96 533.578C1320.58 533.578 1279.72 519.568 1249.36 491.546C1219 463.135 1203.83 422.659 1203.83 370.119V272.043C1203.83 219.503 1219 179.222 1249.36 151.2C1279.72 122.789 1320.58 108.584 1371.96 108.584C1423.33 108.584 1464.19 122.789 1494.55 151.2C1524.91 179.222 1540.09 219.503 1540.09 272.043V370.119C1540.09 422.659 1524.91 463.135 1494.55 491.546C1464.19 519.568 1423.33 533.578 1371.96 533.578ZM1371.96 464.692C1400.76 464.692 1423.13 456.324 1439.09 439.589C1455.05 422.854 1463.03 400.476 1463.03 372.454V269.708C1463.03 241.686 1455.05 219.308 1439.09 202.573C1423.13 185.838 1400.76 177.47 1371.96 177.47C1343.55 177.47 1321.17 185.838 1304.82 202.573C1288.86 219.308 1280.89 241.686 1280.89 269.708V372.454C1280.89 400.476 1288.86 422.854 1304.82 439.589C1321.17 456.324 1343.55 464.692 1371.96 464.692Z" fill="white"/>
<path d="M967.913 533.578C939.891 533.578 914.4 527.351 891.437 514.897C868.864 502.054 850.767 483.568 837.146 459.438C823.913 434.919 817.297 405.146 817.297 370.119V272.043C817.297 219.503 832.086 179.222 861.664 151.2C891.243 122.789 931.329 108.584 981.924 108.584C1032.13 108.584 1070.85 122.011 1098.1 148.865C1125.73 175.33 1139.55 211.33 1139.55 256.865V259.2H1063.65V254.53C1063.65 240.13 1060.54 227.092 1054.31 215.416C1048.48 203.741 1039.52 194.595 1027.46 187.978C1015.39 180.973 1000.22 177.47 981.924 177.47C954.681 177.47 933.275 185.838 917.708 202.573C902.14 219.308 894.356 242.076 894.356 270.876V371.286C894.356 399.697 902.14 422.659 917.708 440.173C933.275 457.297 955.07 465.859 983.091 465.859C1011.11 465.859 1031.55 458.465 1044.39 443.676C1057.23 428.886 1063.65 410.205 1063.65 387.632V381.795H966.746V316.411H1139.55V525.405H1068.32V486.292H1057.82C1055.09 492.908 1050.62 499.913 1044.39 507.308C1038.55 514.703 1029.6 520.93 1017.53 525.989C1005.47 531.049 988.929 533.578 967.913 533.578Z" fill="white"/>
<path d="M648 324C648 502.94 502.94 648 324 648C145.06 648 0 502.94 0 324C0 145.06 145.06 0 324 0C502.94 0 648 145.06 648 324Z" fill="#FFEA00"/>
<path d="M166.994 140.108L-nan -nanL166.994 140.108C245.822 140.108 309.725 204.011 309.725 282.839V542.61H306.994C229.674 542.61 166.994 479.93 166.994 402.61V140.108Z" fill="black"/>
<path d="M338.275 542.61H341.007C418.327 542.61 481.007 479.93 481.007 402.61V140.108L-nan -nanL481.007 140.108C402.178 140.108 338.275 204.011 338.275 282.839V542.61Z" fill="black"/>
</svg>
